<?xml version="1.0" encoding="UTF-8" standalone="no"?>
<!-- Created with Inkscape (http://www.inkscape.org/) -->

<svg
   xmlns:dc="http://purl.org/dc/elements/1.1/"
   xmlns:cc="http://creativecommons.org/ns#"
   xmlns:rdf="http://www.w3.org/1999/02/22-rdf-syntax-ns#"
   xmlns:svg="http://www.w3.org/2000/svg"
   xmlns="http://www.w3.org/2000/svg"
   xmlns:sodipodi="http://sodipodi.sourceforge.net/DTD/sodipodi-0.dtd"
   xmlns:inkscape="http://www.inkscape.org/namespaces/inkscape"
   width="320"
   height="240"
   viewBox="0 0 84.666664 63.500002"
   version="1.1"
   id="svg8"
   inkscape:version="0.92.3 (2405546, 2018-03-11)"
   sodipodi:docname="background.svg"
   inkscape:export-filename="/media/scraphero/Gordi/Nextion/pg1_320x240.png"
   inkscape:export-xdpi="96"
   inkscape:export-ydpi="96">
  <defs
     id="defs2" />
  <sodipodi:namedview
     id="base"
     pagecolor="#000000"
     bordercolor="#666666"
     borderopacity="1.0"
     inkscape:pageopacity="1"
     inkscape:pageshadow="2"
     inkscape:zoom="5.6568542"
     inkscape:cx="136.26687"
     inkscape:cy="60.193564"
     inkscape:document-units="px"
     inkscape:current-layer="layer1"
     showgrid="false"
     units="px"
     inkscape:window-width="1920"
     inkscape:window-height="1043"
     inkscape:window-x="1920"
     inkscape:window-y="1"
     inkscape:window-maximized="1"
     showguides="true"
     inkscape:guide-bbox="true"
     inkscape:object-paths="true"
     inkscape:snap-intersection-paths="true">
    <sodipodi:guide
       position="0.66145833,46.963543"
       orientation="1,0"
       id="guide817"
       inkscape:locked="false"
       inkscape:label=""
       inkscape:color="rgb(0,0,255)" />
    <sodipodi:guide
       position="3.2127976,62.838542"
       orientation="0,1"
       id="guide819"
       inkscape:locked="false"
       inkscape:label=""
       inkscape:color="rgb(0,0,255)" />
    <sodipodi:guide
       position="2.5749627,56.223958"
       orientation="0,1"
       id="guide821"
       inkscape:locked="false"
       inkscape:label=""
       inkscape:color="rgb(0,0,255)" />
    <sodipodi:guide
       position="82.682292,58.364985"
       orientation="1,0"
       id="guide823"
       inkscape:locked="false"
       inkscape:label=""
       inkscape:color="rgb(0,0,255)" />
    <sodipodi:guide
       position="84.005208,58.99975"
       orientation="1,0"
       id="guide825"
       inkscape:locked="false"
       inkscape:label=""
       inkscape:color="rgb(0,0,255)" />
    <sodipodi:guide
       position="82.202082,61.515625"
       orientation="0,1"
       id="guide827"
       inkscape:locked="false"
       inkscape:label=""
       inkscape:color="rgb(0,0,255)" />
    <sodipodi:guide
       position="82.682289,57.546875"
       orientation="0,1"
       id="guide829"
       inkscape:locked="false"
       inkscape:label=""
       inkscape:color="rgb(0,0,255)" />
    <sodipodi:guide
       position="26.458333,26.36384"
       orientation="1,0"
       id="guide843"
       inkscape:locked="false"
       inkscape:label=""
       inkscape:color="rgb(0,0,255)" />
    <sodipodi:guide
       position="28.601179,5.159375"
       orientation="0,1"
       id="guide874"
       inkscape:locked="false"
       inkscape:label=""
       inkscape:color="rgb(0,0,255)" />
    <sodipodi:guide
       position="28.624565,0.13229167"
       orientation="0,1"
       id="guide876"
       inkscape:locked="false"
       inkscape:label=""
       inkscape:color="rgb(0,0,255)" />
    <sodipodi:guide
       position="29.115673,2.6458333"
       orientation="0,1"
       id="guide878"
       inkscape:locked="false"
       inkscape:label=""
       inkscape:color="rgb(0,0,255)" />
  </sodipodi:namedview>
  <metadata
     id="metadata5">
    <rdf:RDF>
      <cc:Work
         rdf:about="">
        <dc:format>image/svg+xml</dc:format>
        <dc:type
           rdf:resource="http://purl.org/dc/dcmitype/StillImage" />
        <dc:title />
      </cc:Work>
    </rdf:RDF>
  </metadata>
  <g
     inkscape:groupmode="layer"
     id="layer2"
     inkscape:label="page1 background"
     style="display:inline">
    <path
       style="fill:none;stroke:#ffffff;stroke-width:1.25;stroke-linecap:butt;stroke-linejoin:miter;stroke-miterlimit:4;stroke-dasharray:none;stroke-opacity:1"
       d="M 0.66145832,0.66145798 V 7.2760418 H 82.682291 V 5.9531249 h 1.322916 V 1.984375 H 82.682291 V 0.66145798 Z"
       id="path831"
       inkscape:connector-curvature="0" />
    <text
       xml:space="preserve"
       style="font-style:normal;font-weight:normal;font-size:3.69264507px;line-height:1.25;font-family:sans-serif;letter-spacing:-0.23263665px;word-spacing:0px;fill:#6bb6ff;fill-opacity:0.58823532;stroke:none;stroke-width:0.09231612;"
       x="18.252176"
       y="62.18132"
       id="text825"><tspan
         sodipodi:role="line"
         id="tspan823"
         x="18.252176"
         y="62.18132"
         style="letter-spacing:-0.23263665px;fill:#6bb6ff;fill-opacity:0.58823532;stroke-width:0.09231612;">REG</tspan></text>
    <text
       id="text829"
       y="62.18132"
       x="27.479132"
       style="font-style:normal;font-weight:normal;font-size:3.69264507px;line-height:1.25;font-family:sans-serif;letter-spacing:-0.23263665px;word-spacing:0px;fill:#6bffa4;fill-opacity:0.58823532;stroke:none;stroke-width:0.09231612;"
       xml:space="preserve"><tspan
         style="letter-spacing:-0.23263665px;fill:#6bffa4;fill-opacity:0.58823532;stroke-width:0.09231612;"
         y="62.18132"
         x="27.479132"
         id="tspan827"
         sodipodi:role="line">LOAD</tspan></text>
    <text
       xml:space="preserve"
       style="font-style:normal;font-weight:normal;font-size:3.69264507px;line-height:1.25;font-family:sans-serif;letter-spacing:-0.23263665px;word-spacing:0px;fill:#6bffa4;fill-opacity:0.58823529;stroke:none;stroke-width:0.09231612"
       x="76.521545"
       y="62.18132"
       id="text847"><tspan
         sodipodi:role="line"
         id="tspan845"
         x="76.521545"
         y="62.18132"
         style="letter-spacing:-0.23263665px;fill:#6bffa4;fill-opacity:0.58823529;stroke-width:0.09231612">50A</tspan></text>
    <text
       id="text851"
       y="62.18132"
       x="0.95976567"
       style="font-style:normal;font-weight:normal;font-size:3.69264507px;line-height:1.25;font-family:sans-serif;letter-spacing:-0.23263665px;word-spacing:0px;fill:#6bb6ff;fill-opacity:0.58823529;stroke:none;stroke-width:0.09231612"
       xml:space="preserve"><tspan
         style="letter-spacing:-0.23263665px;fill:#6bb6ff;fill-opacity:0.58823529;stroke-width:0.09231612"
         y="62.18132"
         x="0.95976567"
         id="tspan849"
         sodipodi:role="line">-25A</tspan></text>
    <path
       inkscape:connector-curvature="0"
       id="path866"
       d="m 40.869484,48.818419 c -3.18504,-0.307493 -6.144547,-1.683811 -8.344465,-3.880595 -3.086326,-3.081926 -4.388497,-7.380405 -3.514518,-11.601438 1.065354,-5.14528 5.210893,-9.05678 10.624314,-10.024511 1.021074,-0.182532 2.930027,-0.219662 4.003464,-0.07787 5.160247,0.681626 9.413257,4.10563 10.992041,8.849448 0.412385,1.239103 0.58748,2.17478 0.640118,3.420676 0.119071,2.818298 -0.61295,5.360879 -2.225252,7.729166 -0.541478,0.795364 -1.852398,2.17399 -2.674431,2.812557 -2.675194,2.078127 -6.160285,3.095113 -9.501271,2.772567 z m 3.222012,-0.556996 c 3.68524,-0.530027 7.043657,-2.743298 8.978812,-5.917233 2.367021,-3.882257 2.335931,-8.715499 -0.08156,-12.678486 -0.94669,-1.551905 -2.647751,-3.22601 -4.246892,-4.179596 -2.349179,-1.400842 -5.157814,-2.069222 -7.772037,-1.849541 -2.339617,0.196606 -4.439805,0.920823 -6.294288,2.170484 -1.85929,1.252898 -3.218655,2.802739 -4.233978,4.827237 -1.25032,2.493065 -1.579615,5.239285 -0.955923,7.97212 0.965399,4.230097 4.195836,7.735251 8.419845,9.135875 1.997326,0.662286 4.014008,0.831528 6.186023,0.51914 z m -3.923252,-0.454122 c -0.01775,-0.03126 -0.154495,-0.426889 -0.303926,-0.879177 -0.149426,-0.452288 -0.312173,-0.872548 -0.361657,-0.93391 -0.04948,-0.06136 -0.389832,-0.202082 -0.756335,-0.312712 -0.366504,-0.11063 -1.002675,-0.365069 -1.413716,-0.56542 -0.41104,-0.200351 -0.786429,-0.364275 -0.834192,-0.364275 -0.04779,0 -0.455916,0.185094 -0.906999,0.41132 -0.451079,0.226225 -0.865844,0.401147 -0.921694,0.388715 -0.159569,-0.03552 -2.476027,-2.27979 -2.476027,-2.398868 0,-0.05862 0.183254,-0.471968 0.407229,-0.918559 0.223975,-0.446592 0.407224,-0.852389 0.407224,-0.901772 0,-0.04938 -0.156236,-0.391452 -0.347195,-0.760153 -0.190955,-0.368701 -0.451988,-1.00355 -0.580065,-1.410775 l -0.232879,-0.74041 -0.882241,-0.280543 c -0.485231,-0.154299 -0.932213,-0.307838 -0.993301,-0.3412 -0.09282,-0.05069 -0.114321,-0.340443 -0.130911,-1.763916 -0.01524,-1.305845 0.0019,-1.720961 0.07404,-1.779128 0.05164,-0.04173 0.477052,-0.198527 0.945364,-0.348442 0.468308,-0.149916 0.889167,-0.311935 0.935236,-0.360044 0.04605,-0.04811 0.157872,-0.3207 0.248449,-0.605758 0.09058,-0.285057 0.35092,-0.912109 0.578537,-1.393449 l 0.413847,-0.875163 -0.421667,-0.847106 c -0.231912,-0.465908 -0.421667,-0.889703 -0.421667,-0.941766 0,-0.09598 2.373131,-2.49514 2.468076,-2.49514 0.02839,0 0.456849,0.203147 0.952155,0.451437 l 0.900562,0.451437 0.856774,-0.410827 c 0.471224,-0.225955 1.146689,-0.499161 1.501033,-0.607123 l 0.644259,-0.196297 0.30617,-0.918731 c 0.198243,-0.59487 0.354397,-0.944541 0.442977,-0.991949 0.211095,-0.112973 3.273054,-0.09567 3.421319,0.01933 0.06562,0.0509 0.242026,0.459053 0.391994,0.907001 0.149972,0.447948 0.310891,0.854532 0.357589,0.903522 0.04672,0.04899 0.434755,0.209199 0.862342,0.356022 0.427587,0.146823 1.079458,0.418286 1.448603,0.603251 l 0.67117,0.336299 0.90106,-0.451689 c 0.495586,-0.248428 0.922443,-0.451688 0.948581,-0.451688 0.101731,0 2.472153,2.403065 2.472153,2.506198 0,0.0602 -0.183255,0.455698 -0.40723,0.878872 -0.223969,0.423175 -0.407224,0.823117 -0.407224,0.888761 0,0.06564 0.179448,0.471952 0.39877,0.902908 0.219327,0.430957 0.47592,1.033446 0.570217,1.338865 0.09429,0.305419 0.202108,0.596923 0.239583,0.647786 0.03748,0.05086 0.455577,0.214812 0.929113,0.364332 0.473536,0.14952 0.903227,0.304065 0.954869,0.343434 0.0721,0.05497 0.08928,0.468814 0.07404,1.782856 l -0.01983,1.711275 -0.992218,0.333184 -0.992213,0.333184 -0.212608,0.666369 c -0.116938,0.366503 -0.378456,1.00214 -0.581159,1.412528 -0.202698,0.410387 -0.368544,0.796502 -0.368544,0.858034 0,0.06153 0.182538,0.458766 0.405637,0.882743 0.2231,0.423976 0.406349,0.8266 0.407225,0.894719 0.0015,0.131165 -2.300038,2.377361 -2.476226,2.416488 -0.05684,0.01262 -0.504873,-0.167009 -0.995637,-0.399181 l -0.892301,-0.422131 -0.760253,0.37285 c -0.418136,0.205067 -1.043458,0.461449 -1.389599,0.569738 -0.346141,0.108288 -0.677322,0.22246 -0.735953,0.253714 -0.05864,0.03126 -0.244662,0.47094 -0.413396,0.977079 l -0.306785,0.920252 -1.784151,0.01982 c -0.981282,0.0109 -1.798652,-0.0058 -1.816379,-0.03702 z m 2.35417,-3.79531 c 0.916141,-0.09745 1.726895,-0.322223 2.529498,-0.701277 1.088101,-0.513888 2.228604,-1.295186 2.128082,-1.457834 -0.02133,-0.03449 -0.471142,-0.06271 -0.999604,-0.06271 h -0.960842 l 0.02119,-0.721899 0.02118,-0.7219 0.555311,-0.08391 0.555306,-0.08391 -0.4567,-0.0086 c -0.7101,-0.01344 -0.690937,0.0096 -0.690937,-0.829603 0,-0.720207 0.0029,-0.731649 0.185102,-0.769509 0.605085,-0.125627 0.613738,-0.134547 0.203612,-0.209931 l -0.388714,-0.07145 v -0.93731 c 0,-0.630299 0.02912,-0.966413 0.08885,-1.02616 0.0691,-0.06911 0.0691,-0.108594 0,-0.177698 -0.05939,-0.05939 -0.08885,-0.388189 -0.08885,-0.991632 0,-1.007367 -0.01025,-0.988544 0.542856,-0.99787 0.169735,-0.0029 0.375253,-0.03384 0.456699,-0.06884 0.116807,-0.05019 0.08553,-0.0649 -0.148082,-0.06965 -0.162891,-0.0033 -0.42111,-0.02667 -0.57382,-0.05191 -0.251351,-0.04155 -0.27776,-0.06777 -0.278785,-0.276839 -0.0019,-0.395181 -0.117373,-0.471756 -0.221972,-0.147252 -0.0508,0.157581 -0.125412,0.32816 -0.165813,0.379063 -0.08799,0.110857 -1.724965,0.132304 -1.792219,0.02348 -0.03821,-0.06186 0.205483,-1.311798 0.267964,-1.374278 0.01403,-0.01403 0.831111,-0.06169 1.815745,-0.10591 0.984634,-0.04422 1.850831,-0.104307 1.924881,-0.133522 0.265131,-0.104603 -0.289449,-0.150613 -1.922327,-0.159483 -1.339534,-0.0073 -1.619741,-0.02706 -1.654178,-0.116806 -0.02278,-0.05943 0.03023,-0.422826 0.117895,-0.807555 0.135642,-0.595429 0.18397,-0.705687 0.324811,-0.741037 0.091,-0.02284 0.891077,-0.03951 1.777941,-0.03704 0.886864,0.0025 1.631596,-0.01463 1.654953,-0.03798 0.063,-0.063 -0.532187,-0.588489 -1.160619,-1.024709 -0.663808,-0.46078 -1.580065,-0.866449 -2.483771,-1.099681 -0.559543,-0.14441 -0.844402,-0.171167 -1.776983,-0.166914 -1.298417,0.0059 -2.110254,0.179698 -3.17882,0.680444 -0.874119,0.409628 -2.374586,1.478822 -2.250069,1.603341 0.02568,0.02567 0.757897,0.04414 1.62717,0.04104 0.869268,-0.0031 1.680113,0.02185 1.801868,0.05544 0.20975,0.05787 0.230277,0.09938 0.390857,0.790511 0.09322,0.401191 0.14353,0.753268 0.111811,0.782394 -0.03173,0.02913 -0.957273,0.06508 -2.056779,0.07989 l -1.999106,0.02693 -0.02099,-0.795941 c -0.01156,-0.437766 -0.05165,-0.79594 -0.08909,-0.79594 -0.118384,0 -0.937214,1.003374 -1.248662,1.530085 -0.727532,1.230371 -1.067864,2.488872 -1.067912,3.948946 -4.4e-5,1.460393 0.345899,2.820787 0.98903,3.889294 0.321972,0.534917 1.204735,1.632164 1.295012,1.609655 0.03773,-0.0094 0.08525,-0.209317 0.105615,-0.444246 l 0.037,-0.427143 0.703388,-0.05632 c 0.386861,-0.03098 0.903299,-0.04764 1.147636,-0.03702 l 0.444245,0.0193 v 0.555307 0.555307 l -1.055086,0.02054 c -0.840204,0.01636 -1.055081,0.04145 -1.055081,0.123196 0,0.124334 0.759199,0.73108 1.369754,1.0947 0.890057,0.530074 2.014874,0.903796 3.048876,1.012994 0.814758,0.08604 0.802947,0.08599 1.541667,0.0074 z M 40.9395,41.658846 c -0.09482,-0.177176 -0.269759,-1.039341 -0.220821,-1.088281 0.02148,-0.02148 0.599494,-0.06115 1.284483,-0.08817 l 1.245431,-0.04912 -0.04663,0.28973 c -0.02563,0.159352 -0.09869,0.464653 -0.162345,0.678446 l -0.115733,0.388715 h -0.95706 c -0.840567,0 -0.965611,-0.01598 -1.027342,-0.131323 z m -4.543974,-1.315857 c -0.03057,-0.03208 -0.05553,-0.353678 -0.05553,-0.714672 0,-0.546155 0.02085,-0.664359 0.12428,-0.704044 0.06836,-0.02623 0.593124,-0.05017 1.166147,-0.05321 l 1.041862,-0.0055 0.02157,0.659613 c 0.01185,0.362788 -0.005,0.686142 -0.03739,0.718566 -0.07995,0.07995 -2.191071,0.172631 -2.260938,0.09926 z m 4.09157,-0.412353 c -0.04638,-0.178571 -0.115327,-0.44129 -0.153218,-0.583819 -0.162592,-0.611634 -0.274857,-0.567527 1.600176,-0.628664 0.918439,-0.02994 1.690208,-0.03413 1.71504,-0.0093 0.05261,0.05262 -0.244865,1.304634 -0.329285,1.385887 -0.03134,0.03017 -0.662551,0.07863 -1.402688,0.107709 l -1.345696,0.05286 z m -4.09157,-1.43853 c -0.08801,-0.09266 -0.06693,-1.720942 0.02302,-1.776524 0.04319,-0.0267 0.546203,-0.06706 1.117789,-0.08968 0.844088,-0.03342 1.051589,-0.02164 1.104977,0.06268 0.09184,0.145057 0.08579,1.67597 -0.0069,1.733224 -0.115845,0.0716 -2.176241,0.13629 -2.238926,0.0703 z m 3.760109,-0.141935 c -0.151424,-0.123756 -0.490784,-1.608218 -0.394243,-1.724541 0.05958,-0.07179 0.294214,-0.0916 0.902482,-0.07618 l 0.821965,0.02083 0.206161,0.845221 c 0.113388,0.464871 0.180028,0.869661 0.148081,0.899533 -0.09591,0.08969 -1.579813,0.120646 -1.684446,0.03513 z m 1.901152,-0.02284 c -0.0668,-0.04648 -0.07571,-0.120074 -0.0297,-0.245354 0.03613,-0.09843 0.125997,-0.470788 0.19968,-0.827469 0.07368,-0.35668 0.17035,-0.676987 0.214814,-0.711792 0.103584,-0.08108 1.729259,-0.171716 1.774255,-0.09891 0.04868,0.07877 -0.356182,1.706458 -0.447059,1.797339 -0.09842,0.09842 -1.586721,0.173347 -1.711983,0.08619 z m -5.663075,-1.987155 c -0.02955,-0.02955 -0.05372,-0.432373 -0.05372,-0.895173 0,-0.731755 0.01688,-0.84839 0.129571,-0.894661 0.07126,-0.02926 0.596026,-0.05321 1.166142,-0.05321 h 1.036576 l 0.02085,0.821969 c 0.01524,0.600464 -0.0048,0.842334 -0.07404,0.897546 -0.111815,0.08907 -2.146853,0.202036 -2.225363,0.123527 z m 3.176658,-0.161592 c -0.08789,-0.142212 -0.42082,-1.601253 -0.386054,-1.691855 0.0296,-0.07709 0.246055,-0.100656 0.924455,-0.100656 0.779716,0 0.890405,0.01552 0.924064,0.129572 0.151148,0.512194 0.348201,1.524308 0.314083,1.613224 -0.03308,0.08624 -0.214098,0.108228 -0.890956,0.108228 -0.467185,0 -0.865698,-0.02633 -0.885592,-0.05851 z m 2.963043,-0.07177 c -0.0191,-0.03094 0.05497,-0.439087 0.164633,-0.907002 l 0.199399,-0.850754 0.879634,-0.05828 c 0.498812,-0.03305 0.907942,-0.02996 0.945025,0.0071 0.07045,0.07045 -0.283147,1.615628 -0.405642,1.772607 -0.08026,0.102855 -1.721269,0.136267 -1.783049,0.0363 z m -6.161674,-1.966928 c -0.0207,-0.05396 -0.02801,-0.412132 -0.0162,-0.795941 l 0.02148,-0.697834 0.481265,-0.04688 c 0.732616,-0.07136 3.688056,-0.07269 3.731939,-0.0017 0.08769,0.141884 0.328391,1.385548 0.277953,1.436118 -0.03008,0.03015 -0.451137,0.06347 -0.935686,0.07404 l -0.881002,0.01922 -0.09699,-0.333184 c -0.163254,-0.560789 -0.200182,-0.57786 -0.242218,-0.111952 l -0.04,0.443351 -0.296163,0.05216 c -0.162887,0.02869 -0.672041,0.05408 -1.131448,0.05643 -0.628244,0.0032 -0.844616,-0.02005 -0.87293,-0.09384 z m 11.720207,6.906379 c 2.157949,-2.634981 2.367539,-6.321358 0.520365,-9.152418 -0.413879,-0.634331 -0.946307,-1.238027 -1.022017,-1.15882 -0.07829,0.08191 -0.08854,0.888 -0.07865,6.186949 0.0072,3.841749 0.02491,4.572029 0.111076,4.572029 0.0564,0 0.267549,-0.201482 0.469226,-0.44774 z"
       style="fill:#ffffff;fill-opacity:1;stroke-width:0.07404096" />
    <path
       style="fill:none;stroke:#6bffa4;stroke-width:0.26458333;stroke-linecap:butt;stroke-linejoin:miter;stroke-opacity:0.58823532;stroke-miterlimit:4;stroke-dasharray:none"
       d="m 26.458333,58.340624 h 10.947135 l 2.513542,2.513542 -2.513542,2.513542 H 26.458333"
       id="path880"
       inkscape:connector-curvature="0" />
    <path
       inkscape:connector-curvature="0"
       id="path882"
       d="m 26.458333,58.340624 h -8.929687 l -2.513542,2.513542 2.513542,2.513542 h 8.929687"
       style="fill:none;stroke:#6bb6ff;stroke-width:0.26458332;stroke-linecap:butt;stroke-linejoin:miter;stroke-miterlimit:4;stroke-dasharray:none;stroke-opacity:0.58823532"
       sodipodi:nodetypes="ccccc" />
  </g>
  <g
     inkscape:label="nextion used space"
     inkscape:groupmode="layer"
     id="layer1"
     transform="translate(0,-233.49998)"
     style="display:inline">
    <path
       style="opacity:1;fill:#ff0000;fill-opacity:1;fill-rule:nonzero;stroke:none;stroke-width:2.92285204;stroke-miterlimit:4;stroke-dasharray:8.76855614, 2.92285205;stroke-dashoffset:0;stroke-opacity:1"
       d="M 1.3229167,234.8229 H 82.020833 v 5.29166 H 1.3229167 Z"
       id="rect815"
       inkscape:connector-curvature="0"
       sodipodi:nodetypes="ccccc" />
    <path
       sodipodi:nodetypes="ccccc"
       inkscape:connector-curvature="0"
       id="path833"
       d="m 26.458333,291.70832 h 58.208334 v 5.29166 H 26.458333 Z"
       style="opacity:1;fill:#00ff19;fill-opacity:1;fill-rule:nonzero;stroke:none;stroke-width:2.42350078;stroke-miterlimit:4;stroke-dasharray:7.27050269, 2.4235009;stroke-dashoffset:0;stroke-opacity:1"
       inkscape:export-filename="/media/scraphero/Gordi/Nextion/load_ppic.png"
       inkscape:export-xdpi="96"
       inkscape:export-ydpi="96" />
    <path
       style="opacity:1;fill:#006fff;fill-opacity:1;fill-rule:nonzero;stroke:none;stroke-width:1.63392401;stroke-miterlimit:4;stroke-dasharray:4.90177189, 1.63392396;stroke-dashoffset:0;stroke-opacity:1"
       d="m 0,291.70832 h 26.458333 v 5.29166 H 0 Z"
       id="path872"
       inkscape:connector-curvature="0"
       sodipodi:nodetypes="ccccc"
       inkscape:export-filename="/media/scraphero/Gordi/Nextion/reg_ppic.png"
       inkscape:export-xdpi="96"
       inkscape:export-ydpi="96" />
  </g>
</svg>
