<?xml version="1.0" encoding="UTF-8" standalone="no"?>
<!-- Created with Inkscape (http://www.inkscape.org/) -->

<svg
   xmlns:dc="http://purl.org/dc/elements/1.1/"
   xmlns:cc="http://creativecommons.org/ns#"
   xmlns:rdf="http://www.w3.org/1999/02/22-rdf-syntax-ns#"
   xmlns:svg="http://www.w3.org/2000/svg"
   xmlns="http://www.w3.org/2000/svg"
   xmlns:sodipodi="http://sodipodi.sourceforge.net/DTD/sodipodi-0.dtd"
   xmlns:inkscape="http://www.inkscape.org/namespaces/inkscape"
   width="529.27063mm"
   height="495.50592mm"
   viewBox="0 0 529.27063 495.50592"
   version="1.1"
   id="svg8"
   inkscape:version="0.92.3 (2405546, 2018-03-11)"
   sodipodi:docname="project_basic_schem.svg"
   inkscape:export-filename="/home/scraphero/Downloads/battery_schematic.png"
   inkscape:export-xdpi="64.732864"
   inkscape:export-ydpi="64.732864">
  <defs
     id="defs2" />
  <sodipodi:namedview
     id="base"
     pagecolor="#b0b0b0"
     bordercolor="#666666"
     borderopacity="1.0"
     inkscape:pageopacity="0"
     inkscape:pageshadow="2"
     inkscape:zoom="0.24748737"
     inkscape:cx="1200.4847"
     inkscape:cy="885.43103"
     inkscape:document-units="mm"
     inkscape:current-layer="layer1"
     showgrid="false"
     inkscape:showpageshadow="true"
     showborder="true"
     inkscape:object-nodes="false"
     showguides="true"
     inkscape:guide-bbox="true"
     inkscape:window-width="1366"
     inkscape:window-height="731"
     inkscape:window-x="1366"
     inkscape:window-y="0"
     inkscape:window-maximized="1"
     fit-margin-top="5"
     fit-margin-left="5"
     fit-margin-right="5"
     fit-margin-bottom="5" />
  <metadata
     id="metadata5">
    <rdf:RDF>
      <cc:Work
         rdf:about="">
        <dc:format>image/svg+xml</dc:format>
        <dc:type
           rdf:resource="http://purl.org/dc/dcmitype/StillImage" />
        <dc:title></dc:title>
      </cc:Work>
    </rdf:RDF>
  </metadata>
  <g
     inkscape:label="Layer 1"
     inkscape:groupmode="layer"
     id="layer1"
     transform="translate(-61.801541,160.44056)">
    <path
       style="fill:#05989d;stroke-width:0.26458332"
       d="m 325.43923,176.3391 c -3.88049,-0.57133 -6.70512,-2.58968 -7.94989,-5.68063 l -0.636,-1.5793 v -11.90625 -11.90625 l 3.08265,-0.0743 3.08266,-0.0743 0.11035,11.18682 c 0.11581,11.73949 0.15319,12.11072 1.34874,13.39476 0.96942,1.04119 1.98958,1.41422 3.90034,1.42618 2.41084,0.0151 3.58801,-0.59663 4.47934,-2.32773 l 0.66467,-1.29088 0.13229,-11.12026 0.13229,-11.12026 3.10886,-0.0745 3.10885,-0.0745 v 10.93302 c 0,11.88501 -0.081,12.70571 -1.51368,15.33803 -2.09729,3.85342 -7.24383,5.80551 -13.05147,4.95046 z m 81.33188,0.003 c -2.46884,-0.43488 -4.26328,-1.28096 -5.86822,-2.76684 -1.74873,-1.61902 -2.64737,-3.13583 -3.52612,-5.95172 -0.55742,-1.78622 -0.61834,-2.47315 -0.61002,-6.87917 0.009,-4.61416 0.0506,-5.01853 0.73137,-7.0531 2.07885,-6.21323 6.73423,-9.4007 13.15001,-9.00362 7.69915,0.47652 11.64167,5.79147 11.64167,15.69428 0,3.70158 -0.5306,6.48756 -1.71834,9.02225 -0.95049,2.02841 -2.80523,4.23813 -4.4124,5.25689 -2.26964,1.43869 -6.48182,2.19294 -9.38795,1.68103 z m 4.43285,-5.85374 c 3.14387,-1.08426 4.37933,-4.32295 4.13961,-10.85175 -0.19093,-5.1997 -1.07279,-7.4579 -3.36457,-8.61567 -1.39442,-0.70444 -3.28658,-0.78022 -4.70312,-0.18835 -1.3061,0.54572 -1.86118,1.08522 -2.58488,2.51227 -0.97574,1.92407 -1.26762,4.06495 -1.12542,8.25457 0.14863,4.37875 0.7167,6.35607 2.24272,7.80635 1.36999,1.30199 3.51284,1.73193 5.39566,1.08258 z m -177.42421,5.34629 c -0.17101,-0.27669 8.78246,-29.82042 9.2058,-30.37632 0.19341,-0.25399 1.30481,-0.31923 4.50782,-0.26459 l 4.25111,0.0725 4.59759,15.02934 c 2.52867,8.26613 4.53151,15.20152 4.45075,15.41198 -0.19744,0.51452 -6.30096,0.56167 -6.72146,0.0519 -0.15005,-0.1819 -0.61672,-1.52135 -1.03703,-2.97656 l -0.76421,-2.64583 -5.04375,-0.0717 c -3.83018,-0.0545 -5.11001,0.009 -5.31912,0.26458 -0.15145,0.18497 -0.5987,1.40787 -0.99388,2.71756 -0.39519,1.30969 -0.8383,2.53008 -0.98469,2.71198 -0.32277,0.40105 -5.90535,0.46929 -6.14893,0.0752 z m 16.6534,-11.37027 c 0.14435,-0.23357 -2.8808,-11.06439 -3.17162,-11.35521 -0.0741,-0.0741 -0.23643,-0.0236 -0.36075,0.11223 -0.29422,0.32143 -3.20473,10.28179 -3.20473,10.96724 0,0.49483 0.18616,0.5245 3.29168,0.5245 1.81042,0 3.36086,-0.11195 3.44542,-0.24876 z m 13.42415,11.30834 c -0.23935,-0.23935 -0.3175,-3.9463 -0.3175,-15.05961 0,-8.10816 0.0723,-14.93044 0.1606,-15.16062 0.13965,-0.36393 0.91312,-0.41852 5.92985,-0.41852 6.50964,0 9.00463,0.33624 11.14692,1.50222 2.83036,1.54047 4.09192,4.0607 3.87231,7.73571 -0.1824,3.0522 -1.45663,5.02061 -4.1102,6.34934 -0.61846,0.30969 -1.12448,0.69376 -1.12448,0.85349 0,0.15973 0.3608,0.70136 0.80179,1.20361 1.01568,1.1568 6.68751,12.45468 6.49908,12.94572 -0.10923,0.28464 -0.86397,0.36526 -3.38996,0.36211 -1.7872,-0.002 -3.40945,-0.10546 -3.605,-0.22939 -0.19555,-0.12394 -1.34698,-2.41407 -2.55873,-5.08918 -2.45811,-5.42662 -3.39608,-6.75666 -5.02322,-7.12286 -2.062,-0.46407 -1.98438,-0.7021 -1.98438,6.085 0,5.26296 -0.0538,6.05993 -0.41851,6.19988 -0.78897,0.30276 -5.54588,0.17579 -5.87857,-0.1569 z m 12.01574,-18.1777 c 1.39622,-0.78472 1.95426,-1.76118 1.95426,-3.41959 0,-2.49772 -1.58453,-3.54786 -5.42097,-3.59272 l -2.11966,-0.0248 -0.0742,3.55853 c -0.0408,1.95719 -0.009,3.72818 0.0705,3.93555 0.24146,0.62923 4.23884,0.30245 5.59007,-0.45699 z m 14.0369,18.31881 c -0.097,-0.097 -0.17639,-7.07389 -0.17639,-15.50418 v -15.32779 l 6.81302,0.11723 c 5.52211,0.095 7.08875,0.20499 8.26823,0.58045 6.53601,2.08059 9.25768,6.75619 8.92952,15.34019 -0.1062,2.77805 -0.27163,3.89189 -0.83825,5.64389 -1.67653,5.18388 -5.77619,8.26338 -12.06002,9.05901 -2.26743,0.28709 -10.67015,0.35717 -10.93611,0.0912 z m 11.74798,-5.80165 c 1.99238,-0.58477 3.90241,-2.54358 4.62198,-4.74003 0.72263,-2.20579 0.73269,-7.7791 0.018,-9.97718 -0.63072,-1.93981 -1.90884,-3.42294 -3.56308,-4.13457 -1.64429,-0.70735 -5.64451,-1.07635 -6.24708,-0.57625 -0.34892,0.28957 -0.4042,1.64566 -0.4042,9.91625 0,5.26943 0.0794,9.66017 0.17639,9.75718 0.33836,0.33836 3.97186,0.17318 5.39799,-0.2454 z m 43.81452,5.80165 c -0.097,-0.097 -0.17639,-1.28764 -0.17639,-2.64583 v -2.46945 h 2.92781 c 1.6103,0 3.15811,-0.12325 3.43958,-0.27389 0.49163,-0.26311 0.51162,-0.65103 0.50773,-9.85573 -0.002,-5.27001 -0.0961,-9.72666 -0.20857,-9.90368 -0.13726,-0.21601 -1.24522,-0.34652 -3.36938,-0.39688 l -3.16488,-0.075 -0.0758,-2.58285 -0.0758,-2.58283 10.12993,0.0693 10.12993,0.0693 v 2.51354 2.51355 l -3.30729,0.13229 -3.30729,0.13229 -0.0693,9.98218 -0.0693,9.98218 0.59849,0.13884 c 0.32917,0.0764 1.84864,0.16829 3.37661,0.20428 l 2.77812,0.0654 0.0773,2.20845 c 0.049,1.40063 -0.0354,2.34425 -0.23084,2.57969 -0.25416,0.30625 -2.0083,0.37123 -10.02118,0.37123 -5.3422,0 -9.79247,-0.0794 -9.88948,-0.17639 z m 25.61321,-0.14503 c -0.0716,-0.18702 -0.0992,-7.1266 -0.0614,-15.42129 l 0.0687,-15.08125 h 3.8126 3.8126 l 4.50584,9.59115 c 2.47821,5.27513 4.60083,9.59114 4.71692,9.59114 0.11609,0 0.24232,-4.31601 0.28052,-9.59114 l 0.0694,-9.59115 h 2.91042 2.91041 l 0.0683,15.05149 c 0.0495,10.89626 -0.0143,15.15101 -0.23083,15.41198 -0.22397,0.26987 -1.13911,0.35947 -3.64022,0.35644 -1.83758,-0.002 -3.49116,-0.0993 -3.67463,-0.21582 -0.26832,-0.17033 -6.73094,-13.739 -8.82892,-18.53685 -0.27945,-0.63906 -0.59439,-1.07576 -0.69987,-0.97044 -0.10549,0.10532 -0.25132,4.55725 -0.32408,9.89318 l -0.1323,9.70169 -2.7167,0.0755 c -2.02527,0.0563 -2.74983,-0.0111 -2.84682,-0.26458 z m -98.68231,-39.14527 c -3.04961,-0.34455 -7.80386,-1.45697 -10.68669,-2.50051 -14.91677,-5.39965 -25.89181,-17.6644 -29.24096,-32.67716 -0.63376,-2.840894 -0.68589,-3.557574 -0.68589,-9.429734 0,-5.31721 0.0863,-6.77434 0.5281,-8.921753 3.54001,-17.204766 17.33257,-30.976433 34.94687,-34.893936 4.42314,-0.983728 8.2257,-1.32097 12.81149,-1.136229 9.84205,0.396493 18.32266,3.014431 26.06146,8.045101 3.46423,2.251952 5.15738,3.623078 8.56406,6.935225 3.68065,3.578514 6.04547,6.307641 9.40875,10.858182 1.34442,1.81901 2.53866,3.307292 2.65388,3.307292 0.11522,0 1.66379,-1.944405 3.44128,-4.320901 3.45272,-4.61628 9.01627,-10.585337 12.43994,-13.346656 8.99132,-7.251823 19.07052,-11.004564 30.82854,-11.478243 22.91288,-0.923058 42.79796,13.867787 47.60345,35.40822 5.80702,26.029752 -12.95275,51.198902 -40.38312,54.180212 -3.68728,0.40076 -10.97818,0.33713 -14.22384,-0.12414 -7.89288,-1.12173 -15.10362,-4.15829 -21.57149,-9.08413 -2.11969,-1.61433 -7.16218,-6.54025 -9.38249,-9.16561 -2.04095,-2.41327 -4.14298,-5.20349 -6.72724,-8.92968 -0.98401,-1.41883 -1.89041,-2.57969 -2.01422,-2.57969 -0.12382,0 -1.02957,1.16086 -2.01279,2.57969 -5.04693,7.28294 -10.64895,13.68175 -15.17256,17.33059 -6.64863,5.36292 -14.20318,8.66826 -22.5101,9.84883 -3.0732,0.43676 -11.1868,0.4893 -14.67643,0.095 z m 15.79716,-16.44326 c 7.40473,-1.94482 13.69125,-6.70041 20.17647,-15.26296 3.20363,-4.22981 8.87325,-12.901784 8.87325,-13.572084 0,-0.4516 -4.50252,-7.194361 -6.99405,-10.473972 -7.61898,-10.028873 -15.03839,-15.244533 -24.56184,-17.266366 -3.69231,-0.783879 -10.91023,-0.855542 -14.16307,-0.140617 -9.77037,2.147375 -17.76549,8.322701 -21.64422,16.717717 -3.39474,7.347468 -3.39474,16.193988 0,23.541462 3.98037,8.61499 12.83851,15.26232 22.38401,16.79741 1.09141,0.17552 2.16297,0.36143 2.38125,0.41313 0.21828,0.0517 2.77812,0.055 5.68854,0.007 4.6512,-0.0761 5.60248,-0.16826 7.85966,-0.7611 z m -24.86706,-29.482244 0.0741,-3.37552 h 15.74271 15.7427 v 3.30729 3.30729 l -15.81677,0.0682 -15.81677,0.0682 z m 118.87198,29.710534 c 3.08822,-0.70052 5.15564,-1.46094 8.11965,-2.98649 7.9959,-4.11543 13.57416,-11.35055 15.35262,-19.912694 0.68948,-3.31939 0.55646,-9.39008 -0.2735,-12.481833 -2.15878,-8.041846 -7.54988,-14.677931 -15.08648,-18.570432 -2.82428,-1.458684 -5.172,-2.305267 -8.29853,-2.99243 -3.25285,-0.714925 -10.47077,-0.643262 -14.16308,0.140617 -9.55995,2.02958 -16.93777,7.230172 -24.63859,17.367619 -2.5888,3.407932 -6.91729,9.890069 -6.91729,10.358999 0,0.65741 5.52092,9.139274 8.757,13.453504 7.18087,9.57328 14.52663,14.64922 23.14771,15.99516 2.41059,0.37634 11.8014,0.12681 14.00049,-0.37202 z m -13.02354,-16.76284 c -0.22668,-0.14402 -0.34549,-1.4299 -0.39687,-4.295434 l -0.0733,-4.08987 -4.10104,-0.13229 -4.10104,-0.13229 v -4.36563 -4.36562 l 4.10104,-0.13229 4.10104,-0.13229 0.1323,-4.101047 0.13229,-4.101041 h 4.36562 4.36563 l 0.13229,4.101041 0.13229,4.101047 4.10104,0.13229 4.10104,0.13229 v 4.36562 4.36563 l -4.10104,0.13229 -4.10104,0.13229 -0.0733,4.08987 c -0.0514,2.865534 -0.17019,4.151414 -0.39688,4.295434 -0.17794,0.11306 -2.04994,0.20556 -4.16,0.20556 -2.11005,0 -3.98205,-0.0925 -4.16,-0.20556 z m 42.96326,-48.912945 c -0.0958,-0.09575 -0.17409,-0.871571 -0.17409,-1.724045 0,-1.419544 -0.057,-1.571619 -0.67738,-1.80749 -1.22393,-0.465336 -0.39021,-0.787697 2.0372,-0.787697 h 2.38692 l 0.41873,1.066 c 0.48929,1.245615 0.83871,1.23908 1.26387,-0.02364 0.20626,-0.612606 0.47166,-0.910068 0.81197,-0.910068 0.44756,0 0.51443,0.235265 0.58284,2.050521 0.0642,1.704563 0.008,2.05052 -0.33073,2.05052 -0.23161,0 -0.408,-0.228769 -0.408,-0.529166 0,-0.729001 -0.38302,-0.663513 -0.74324,0.127076 -0.33726,0.740221 -0.99104,0.660903 -1.2489,-0.151519 -0.211,-0.664809 -0.6537,-0.648256 -0.6537,0.02444 0,0.291041 -0.17291,0.529166 -0.38425,0.529166 -0.28655,0 -0.40427,-0.420435 -0.46302,-1.653645 -0.0746,-1.566495 -0.11363,-1.653646 -0.74023,-1.653646 -0.61848,0 -0.66657,0.09742 -0.74015,1.499371 -0.0729,1.388527 -0.5267,2.304957 -0.93784,1.893819 z"
       id="path825"
       inkscape:connector-curvature="0" />
    <path
       style="fill:#6cb25b;fill-opacity:1;stroke-width:0.61061376"
       d="m 540.82711,216.67772 c 5.39008,3.09135 7.40435,6.61 8.0418,14.04796 l 0.39248,4.5796 3.87251,0.30804 c 6.3962,0.50876 6.20626,-0.13568 6.18321,20.97842 -0.0142,13.0234 -0.21878,18.05253 -0.76327,18.76166 -1.26541,1.64816 -3.28353,2.38953 -6.50454,2.38953 h -3.0932 v 3.56664 c 0,7.57299 -2.76036,12.4081 -8.77381,15.36852 l -3.75022,1.84624 -51.60787,-0.16294 -51.60787,-0.16292 -3.22939,-2.07249 c -2.19669,-1.40972 -3.80121,-3.06943 -5.0176,-5.19019 l -1.78822,-3.11777 -0.004,-31.53026 -0.004,-31.53025 1.98448,-2.96557 c 1.24777,-1.86461 3.22125,-3.70372 5.31587,-4.95392 l 3.33088,-1.98835 51.9292,0.004 51.92918,0.004 z m -106.38885,10.05121 -1.49878,1.49877 v 28.33803 28.33806 l 1.60979,1.60978 1.60979,1.6098 h 49.41662 c 31.06627,0 49.83132,-0.22202 50.53343,-0.59772 1.84885,-0.98946 2.46655,-4.06793 2.46655,-12.29251 v -7.82309 l 5.34288,-0.17655 5.34285,-0.17632 v -10.38043 -10.38046 l -5.34285,-0.1763 -5.34288,-0.17633 v -8.24982 c 0,-8.32186 -0.6315,-11.26993 -2.58227,-12.05483 -0.42684,-0.17169 -23.11417,-0.33393 -50.41623,-0.36046 l -49.64013,-0.0482 -1.49877,1.49877 z m 97.37632,5.60564 c 1.22911,1.56253 1.26555,2.26682 1.26555,24.45231 v 22.84342 l -1.49877,1.49877 -1.49878,1.49878 H 485.52432 440.9661 l -1.26554,-1.60888 c -1.22886,-1.56222 -1.26555,-2.26809 -1.26555,-24.34221 0,-22.0741 0.0366,-22.77997 1.26555,-24.34219 l 1.26554,-1.60889 h 44.79148 44.79147 z"
       id="path890"
       inkscape:connector-curvature="0" />
    <path
       style="fill:#d88f35;fill-opacity:1;stroke-width:0.12528631"
       d="m 118.5976,299.45617 c -3.89732,-4.29662 -6.63205,-8.26237 -9.1024,-13.19972 -5.60305,-11.1986 -7.28384,-24.01843 -4.77251,-36.4012 4.1568,-20.49618 19.5206,-37.09803 39.70379,-42.90323 5.22553,-1.503 9.69168,-2.10942 15.5355,-2.10942 3.83567,0 5.19222,0.0901 8.33155,0.55325 16.01269,2.36246 30.3808,11.672 39.17859,25.385 10.54352,16.4341 11.76489,37.55575 3.18096,55.00981 -2.57468,5.23521 -5.29419,9.21983 -9.32672,13.66551 l -0.93755,1.03361 h -40.42683 -40.42682 z m 77.93927,-5.66921 c 6.39321,-7.19389 10.49313,-15.92735 11.91019,-25.37047 0.43586,-2.90448 0.53743,-4.7397 0.46345,-8.3734 -0.0892,-4.38127 -0.38146,-6.69426 -1.34028,-10.60749 -2.92847,-11.95184 -10.31787,-22.41743 -20.60905,-29.18852 -6.60912,-4.34847 -13.42856,-6.82741 -21.61188,-7.85613 -2.09198,-0.26299 -9.14609,-0.22348 -11.27577,0.0631 -7.97033,1.07268 -14.63726,3.53377 -21.11074,7.79299 -11.30325,7.43698 -19.13934,19.43861 -21.34818,32.69654 -0.50658,3.04054 -0.57698,4.0534 -0.57469,8.2689 0.003,3.57836 0.0399,4.41001 0.28255,6.18319 1.40245,10.25034 5.61222,19.29851 12.50682,26.88125 0.63212,0.6952 1.40928,1.51521 1.72701,1.82224 l 0.57771,0.55822 0.50219,-0.49039 c 0.47514,-0.46395 0.51383,-0.47876 0.7179,-0.27469 0.20406,0.20406 0.34245,0.0891 2.5672,-2.13337 l 2.35151,-2.34908 -1.28191,-1.28627 -1.2819,-1.28627 -1.94819,1.94533 -1.94821,1.94535 -0.97185,-1.1245 c -2.24479,-2.59738 -4.45744,-5.84231 -6.07172,-8.90445 -1.35581,-2.57184 -3.33051,-7.53699 -3.0836,-7.75333 0.0623,-0.0545 1.25723,-0.39953 2.65556,-0.7667 1.91577,-0.50305 2.5263,-0.70966 2.47696,-0.83824 -0.0361,-0.0939 -0.24619,-0.87376 -0.46706,-1.73312 -0.22086,-0.85936 -0.46161,-1.5612 -0.53501,-1.55962 -0.0734,0.002 -1.26102,0.30691 -2.63917,0.67854 -1.37815,0.3716 -2.51899,0.66243 -2.53521,0.64628 -0.0163,-0.0162 -0.14492,-0.5893 -0.28603,-1.27364 -0.98984,-4.80096 -1.12467,-10.73467 -0.3599,-15.84011 0.39011,-2.60422 0.59305,-3.40542 0.84318,-3.32872 0.61938,0.18994 4.89375,1.32413 4.99021,1.32413 0.0626,0 0.30293,-0.71883 0.53408,-1.5974 0.23116,-0.87857 0.44281,-1.65848 0.47034,-1.73311 0.0303,-0.0822 -0.9516,-0.39874 -2.49239,-0.80332 -1.39833,-0.36718 -2.59325,-0.71211 -2.65537,-0.76652 -0.26198,-0.22948 1.72361,-5.20218 3.14601,-7.87885 1.57091,-2.95613 3.82821,-6.25566 5.99428,-8.76195 l 0.98669,-1.14166 1.94746,1.9446 1.94746,1.9446 1.28277,-1.28275 1.28276,-1.28276 -1.94808,-1.95094 -1.94807,-1.95094 1.38894,-1.17822 c 3.93274,-3.33619 8.39442,-6.02791 13.03192,-7.86212 2.39467,-0.94716 3.26873,-1.21387 3.38125,-1.03179 0.0521,0.0842 0.39313,1.27735 0.75799,2.65149 0.40121,1.51095 0.71705,2.47864 0.79912,2.44836 0.0747,-0.0275 0.85457,-0.23917 1.73314,-0.47032 0.87857,-0.23116 1.5974,-0.46648 1.5974,-0.52294 0,-0.10979 -1.24626,-4.81817 -1.33991,-5.06227 -0.0697,-0.18169 1.05441,-0.44152 3.40713,-0.78753 4.62069,-0.67957 9.03553,-0.67957 13.6562,0 2.35274,0.34601 3.47686,0.60584 3.40714,0.78753 -0.0937,0.2441 -1.33992,4.95248 -1.33992,5.06227 0,0.0564 0.71884,0.29178 1.5974,0.52294 0.87857,0.23115 1.65848,0.4428 1.73314,0.47032 0.0822,0.0303 0.39873,-0.95159 0.80331,-2.49237 0.36718,-1.39834 0.70983,-2.59099 0.76147,-2.65033 0.19229,-0.22099 3.9287,1.20157 6.69368,2.54848 3.33405,1.62412 6.72555,3.85498 9.71183,6.38828 l 1.38894,1.17822 -1.94808,1.95094 -1.94808,1.95094 1.28278,1.28276 1.28275,1.28275 1.94746,-1.9446 1.94746,-1.9446 0.98669,1.14166 c 2.16609,2.50629 4.42337,5.80582 5.99428,8.76195 1.4224,2.67667 3.408,7.64937 3.14601,7.87885 -0.0621,0.0545 -1.25702,0.39934 -2.65537,0.76652 -1.54078,0.40458 -2.52271,0.72106 -2.49239,0.80332 0.0275,0.0747 0.23918,0.85454 0.47034,1.73311 0.23115,0.87857 0.46648,1.5974 0.52294,1.5974 0.10978,0 4.81817,-1.24624 5.06226,-1.33991 0.28975,-0.11119 0.93225,3.67737 1.18339,6.9778 0.27822,3.65647 -0.0355,8.6876 -0.76102,12.20681 -0.14109,0.68434 -0.2698,1.25748 -0.28602,1.27364 -0.0163,0.0162 -1.15706,-0.27468 -2.5352,-0.64628 -1.37815,-0.37163 -2.56579,-0.67696 -2.63919,-0.67854 -0.0734,-0.002 -0.31415,0.70026 -0.53501,1.55962 -0.22087,0.85936 -0.43126,1.63983 -0.46753,1.73437 -0.05,0.13031 0.56014,0.33573 2.52259,0.84928 1.4237,0.37257 2.6134,0.74022 2.64377,0.81701 0.0772,0.19518 -0.96797,3.03848 -1.85988,5.05976 -1.79299,4.0634 -4.35162,8.09061 -7.3288,11.53542 l -0.97186,1.1245 -1.94821,-1.94535 -1.94818,-1.94533 -1.28191,1.28627 -1.28191,1.28627 2.35152,2.34908 c 2.1718,2.16954 2.36709,2.33349 2.55534,2.14522 0.18827,-0.18826 0.23991,-0.16392 0.67582,0.31857 l 0.47197,0.52241 0.80315,-0.79002 c 0.44174,-0.43452 1.3543,-1.4102 2.02792,-2.16819 z M 133.426,284.56214 c 2.46472,-2.06214 2.49908,-2.09855 2.45545,-2.60112 -0.0461,-0.5308 -0.55752,-0.96334 -0.99714,-0.84331 -0.28331,0.0773 -4.05511,3.16702 -4.25964,3.48927 -0.31316,0.49345 0.20851,1.34958 0.82238,1.34958 0.21434,0 0.83508,-0.43738 1.97895,-1.39442 z m 55.67075,1.0869 c 0.30599,-0.30599 0.39259,-0.74271 0.20566,-1.03701 -0.20553,-0.32356 -3.98396,-3.4231 -4.26274,-3.49683 -0.44029,-0.11643 -0.95125,0.31697 -0.99715,0.84582 -0.0436,0.50257 -0.009,0.53898 2.45545,2.60112 1.8036,1.509 2.06665,1.61903 2.59878,1.0869 z m -59.07467,-6.2163 c 1.20394,-0.69408 2.28765,-1.35118 2.40824,-1.46022 0.34079,-0.30816 0.28358,-0.96762 -0.11086,-1.27789 -0.18156,-0.14282 -0.42118,-0.25872 -0.53247,-0.25755 -0.1113,7.4e-4 -1.21718,0.58699 -2.45751,1.30184 -2.46894,1.42292 -2.76903,1.7099 -2.4264,2.32037 0.15174,0.27031 0.63843,0.62726 0.86384,0.63356 0.0364,7.4e-4 1.05122,-0.56603 2.25516,-1.26011 z m 62.86804,0.79569 c 0.30405,-0.33505 0.29663,-0.81259 -0.0174,-1.11956 -0.26816,-0.26211 -4.54855,-2.67392 -4.74557,-2.67392 -0.10589,0 -0.34107,0.11686 -0.52264,0.25968 -0.39445,0.31027 -0.45165,0.96973 -0.11085,1.27789 0.12058,0.10904 1.2041,0.76602 2.4078,1.45998 2.33806,1.34788 2.45863,1.38 2.98867,0.79593 z m -65.25421,-6.38971 c 1.20467,-0.4402 2.28996,-0.89054 2.41175,-1.00076 0.3191,-0.2888 0.27869,-0.86748 -0.0861,-1.23221 -0.16914,-0.16915 -0.38927,-0.30753 -0.48921,-0.30753 -0.28705,0 -5.01243,1.74939 -5.17745,1.91675 -0.0816,0.0827 -0.18601,0.30409 -0.23202,0.49185 -0.0677,0.27587 -0.0102,0.41487 0.29917,0.72424 0.46181,0.46182 0.31743,0.48795 3.27382,-0.59234 z m 67.92981,0.58851 c 0.30577,-0.30577 0.36285,-0.44499 0.29534,-0.72041 -0.0461,-0.18776 -0.15044,-0.40909 -0.23204,-0.49185 -0.16502,-0.16736 -4.8904,-1.91675 -5.17745,-1.91675 -0.0999,0 -0.32007,0.13838 -0.48921,0.30753 -0.36618,0.36617 -0.40485,0.9437 -0.0827,1.23525 0.24838,0.22479 4.75838,1.92085 5.20345,1.95686 0.057,0.004 0.27414,-0.16218 0.4826,-0.37063 z m -33.50447,-4.06922 c 3.56181,-0.83979 6.37375,-3.68212 7.11855,-7.19549 0.0959,-0.45225 0.17529,-1.39427 0.17649,-2.0934 l 0.003,-1.27111 6.60886,-4.63068 c 3.63486,-2.54688 10.41442,-7.29602 15.06567,-10.55364 4.65126,-3.25762 8.51321,-5.98021 8.58212,-6.05017 0.1796,-0.18234 0.61553,-0.37582 -9.39648,4.17033 -5.03024,2.28408 -12.56998,5.70252 -16.75498,7.59653 l -7.60909,3.44366 -0.40923,-0.30751 c -1.41643,-1.06427 -3.4943,-1.71297 -5.48689,-1.71297 -4.44851,0 -8.18175,2.95969 -9.20443,7.29721 -0.23739,1.00683 -0.23739,3.19167 0,4.19853 0.82546,3.50104 3.56164,6.25651 7.05358,7.10328 0.96314,0.23355 3.27359,0.2365 4.25366,0.005 z m -3.36561,-4.37812 c -3.10969,-0.85757 -4.60562,-4.23566 -3.15633,-7.12765 1.01479,-2.02494 3.44581,-3.12091 5.63165,-2.53889 3.06075,0.81494 4.63379,4.09581 3.31499,6.91402 -1.03513,2.21201 -3.50053,3.38397 -5.79031,2.75252 z m -32.75236,2.04154 c 2.59811,-0.45055 2.82241,-0.55203 2.82241,-1.27674 0,-0.50579 -0.36118,-0.87726 -0.8473,-0.87144 -0.66049,0.008 -4.85589,0.81484 -5.12562,0.98587 -0.55643,0.35278 -0.52624,1.17219 0.0547,1.48562 0.18863,0.10175 0.42752,0.16337 0.53088,0.13695 0.10336,-0.0265 1.25756,-0.23355 2.56489,-0.46026 z m 71.10079,0.33393 c 0.60824,-0.31452 0.66014,-1.13247 0.0946,-1.49133 -0.27513,-0.17459 -4.46214,-0.98275 -5.13314,-0.99078 -0.47525,-0.006 -0.8473,0.36644 -0.8473,0.84749 0,0.76309 0.12856,0.82208 2.89528,1.32894 1.40508,0.25741 2.57157,0.47346 2.59222,0.48013 0.0206,0.007 0.19989,-0.0719 0.3983,-0.17445 z m -69.22365,-6.40615 c 0.33397,-0.12816 0.58625,-0.73857 0.45162,-1.09271 -0.24937,-0.65585 -0.4848,-0.70891 -3.13621,-0.70692 -2.61175,0.003 -2.94285,0.0653 -3.21678,0.6147 -0.17088,0.34277 -0.0327,0.85449 0.2987,1.10615 0.14961,0.11361 0.91911,0.1566 2.80305,0.1566 1.42826,0 2.68808,-0.035 2.79962,-0.0779 z m 69.84781,-0.0448 c 0.33931,-0.1816 0.51523,-0.78199 0.33502,-1.14343 -0.2721,-0.54582 -0.6065,-0.6094 -3.21512,-0.61137 -2.6514,-0.003 -2.88684,0.051 -3.13619,0.70691 -0.12657,0.33288 0.11374,0.96667 0.41202,1.08667 0.29942,0.12048 5.3723,0.0854 5.60427,-0.0388 z m -69.23265,-5.77493 c 0.23648,-0.18601 0.33011,-0.37597 0.33011,-0.66966 0,-0.69837 -0.26996,-0.81971 -2.84854,-1.28051 -1.29297,-0.23106 -2.48815,-0.42033 -2.65597,-0.42063 -0.41233,-7.6e-4 -0.88509,0.46742 -0.88509,0.87645 0,0.65977 0.37741,0.8259 2.94423,1.29611 1.30923,0.23983 2.4715,0.44097 2.58279,0.44698 0.1113,0.006 0.35091,-0.10592 0.53247,-0.24874 z m 66.04543,-0.18403 c 2.68212,-0.47638 3.06686,-0.63856 3.06686,-1.29275 0,-0.41642 -0.46411,-0.89471 -0.86752,-0.89402 -0.17748,2.5e-4 -1.38057,0.18957 -2.67352,0.42063 -2.5786,0.4608 -2.84856,0.58214 -2.84856,1.28051 0,0.29369 0.0936,0.48365 0.33012,0.66966 0.18156,0.14282 0.36713,0.25966 0.41239,0.25966 0.0453,0 1.20637,-0.19965 2.58023,-0.44369 z m -64.50185,-5.3413 c 0.58684,-0.55132 0.3313,-1.21143 -0.61404,-1.58612 -1.75692,-0.69638 -4.19601,-1.52421 -4.49085,-1.52421 -0.65624,0 -1.05865,0.99207 -0.5918,1.45895 0.23638,0.23638 4.67402,1.90186 5.10159,1.91466 0.16782,0.005 0.43562,-0.11345 0.5951,-0.26328 z m 63.11607,-0.59288 c 1.29417,-0.47591 2.44019,-0.95244 2.54672,-1.05897 0.46645,-0.46646 0.0636,-1.45848 -0.59225,-1.45848 -0.29485,0 -2.73392,0.82783 -4.49086,1.52421 -0.68513,0.27156 -0.90399,0.51283 -0.90399,0.99654 0,0.36617 0.4694,0.86199 0.81607,0.86199 0.14921,0 1.33014,-0.38938 2.62431,-0.86529 z m -60.69624,-4.52202 c 0.30906,-0.30906 0.324,-0.89175 0.0314,-1.22174 -0.37858,-0.42684 -4.40234,-2.66214 -4.79212,-2.66214 -0.23726,0 -0.44521,0.11119 -0.61742,0.33011 -0.31722,0.40328 -0.32826,0.68641 -0.0404,1.03596 0.33824,0.41075 4.42892,2.75209 4.82352,2.76078 0.18949,0.004 0.45729,-0.10516 0.59511,-0.24297 z m 3.23382,-4.64048 c 0.17921,-0.16695 0.2742,-0.40444 0.2742,-0.68547 0,-0.40177 -0.1295,-0.53834 -1.97081,-2.07819 -1.08394,-0.90649 -2.08626,-1.70077 -2.22737,-1.76507 -0.59162,-0.26955 -1.31157,0.39541 -1.14531,1.05785 0.0682,0.27163 3.31612,3.15275 4.01922,3.56528 0.38376,0.22517 0.74157,0.193 1.05007,-0.0944 z m 49.70842,0.0944 c 0.70309,-0.41253 3.95104,-3.29365 4.01922,-3.56528 0.16625,-0.66244 -0.55368,-1.3274 -1.1453,-1.05785 -0.14112,0.0643 -1.14345,0.85858 -2.22738,1.76507 -1.84132,1.53985 -1.97082,1.67642 -1.97082,2.07819 0,0.74688 0.68898,1.15264 1.32428,0.77987 z m -45.69925,-4.10356 c 0.55914,-0.52093 0.406,-0.87206 -1.24818,-2.86199 -0.83732,-1.00725 -1.63287,-1.93004 -1.7679,-2.05062 -0.55339,-0.49421 -1.47061,-0.0902 -1.47061,0.64783 0,0.2857 0.35641,0.7921 1.6257,2.30987 0.89413,1.06918 1.72572,2.00218 1.84798,2.07335 0.34801,0.20259 0.71439,0.15976 1.01301,-0.11844 z m 41.62707,0.12567 c 0.13338,-0.0713 0.97536,-1.00609 1.87106,-2.07715 1.74219,-2.08325 1.89649,-2.4113 1.37799,-2.9298 -0.31053,-0.31054 -0.92862,-0.3251 -1.22154,-0.0288 -0.12059,0.12199 -0.90988,1.04477 -1.75401,2.05063 -1.23796,1.47517 -1.53475,1.90378 -1.53475,2.21642 0,0.67837 0.66862,1.08588 1.26125,0.76871 z m -36.99149,-3.38311 c 0.48128,-0.44837 0.35866,-0.85566 -0.93278,-3.09841 -1.2842,-2.23018 -1.52529,-2.5346 -2.0074,-2.5346 -0.37241,0 -0.92007,0.52009 -0.92007,0.87377 0,0.33022 2.31192,4.35828 2.71639,4.73279 0.3783,0.35026 0.78618,0.35969 1.14386,0.0265 z m 32.51647,-0.0265 c 0.4004,-0.3662 2.71262,-4.40345 2.71262,-4.73638 0,-0.35066 -0.54931,-0.87018 -0.92007,-0.87018 -0.48576,0 -0.73111,0.31087 -2.00924,2.54572 -1.2837,2.24458 -1.40472,2.6459 -0.93094,3.08728 0.35763,0.33318 0.76467,0.3238 1.14763,-0.0265 z m -27.43564,-2.35821 c 0.21848,-0.17186 0.33012,-0.38025 0.33012,-0.61627 0,-0.33092 -1.40724,-4.36457 -1.73887,-4.98424 -0.19684,-0.36778 -0.72647,-0.49076 -1.13239,-0.26292 -0.6369,0.35749 -0.61169,0.61024 0.31743,3.18302 1.06011,2.93548 1.39155,3.33499 2.22371,2.68041 z m 22.29438,-0.0223 c 0.16082,-0.16288 0.64066,-1.28513 1.13651,-2.65818 0.92912,-2.57278 0.95434,-2.82554 0.31743,-3.18301 -0.40592,-0.22784 -0.93555,-0.10487 -1.13238,0.26292 -0.33163,0.61965 -1.73888,4.6533 -1.73888,4.98423 0,0.23603 0.11164,0.44441 0.33013,0.61628 0.42584,0.33497 0.74085,0.32853 1.08719,-0.0223 z m -16.74164,-1.49394 c 0.15949,-0.14983 0.28932,-0.41763 0.28851,-0.59511 -7.4e-4,-0.17749 -0.19452,-1.38549 -0.43051,-2.68445 -0.29219,-1.60836 -0.4995,-2.43959 -0.6499,-2.60577 -0.319,-0.3525 -1.01184,-0.26865 -1.33132,0.16113 -0.24543,0.33017 -0.24535,0.33153 0.14763,2.56836 0.21625,1.23092 0.42556,2.39881 0.46513,2.59532 0.15895,0.78945 0.95308,1.08415 1.51046,0.56052 z m 11.18808,0.14808 c 0.31061,-0.16623 0.41275,-0.54189 0.88163,-3.24203 0.39918,-2.29874 0.39936,-2.30181 0.15464,-2.63102 -0.31944,-0.42972 -1.01205,-0.51253 -1.33177,-0.15924 -0.15336,0.16945 -0.35446,0.99175 -0.65135,2.66318 -0.23622,1.32991 -0.42951,2.52952 -0.42951,2.66576 0,0.5963 0.8064,1.00839 1.37636,0.70335 z m -5.5108,-0.62739 c 0.23534,-0.23534 0.25057,-0.41762 0.25057,-2.99778 v -2.74721 l -0.3301,-0.25965 c -0.18157,-0.14283 -0.42767,-0.25968 -0.5469,-0.25968 -0.11923,0 -0.36533,0.11685 -0.5469,0.25968 l -0.3301,0.25965 v 2.74721 c 0,2.58016 0.0152,2.76244 0.25058,2.99778 0.1392,0.1392 0.41761,0.25057 0.62642,0.25057 0.20881,0 0.48722,-0.11137 0.62643,-0.25057 z"
       id="path903"
       inkscape:connector-curvature="0"
       sodipodi:nodetypes="csssscssccccccscssccscccccccscccccccsccccccccccsccccsccccccccccccccsccccscccscccccccccssccccsccccccccccsccccccsccccccccccscsccccsccccccccccscccccscsscccscccssccccsccccccsccssccccccscccscccccccccsccccscccscccccccccsscsccccscsscscccscccssscsssccsccccccsccccccccccccccssccccsccsccccssccccsssccccsccscccccsccccccccscccssccsccsccsccscsc" />
    <path
       style="fill:#3ecdfe;stroke-width:0.93275714"
       d="m 159.80351,-79.177574 v -48.642516 l 3.96422,0.55249 c 2.18032,0.30386 30.5894,3.47027 63.13128,7.03646 32.54189,3.56618 59.53188,6.84878 59.97776,7.29465 0.44586,0.44588 0.68409,3.49637 0.52938,6.77886 -0.24551,5.20899 -0.51373,5.96819 -2.10856,5.96819 -1.31829,0 -2.00268,-0.8576 -2.45696,-3.0788 -0.34633,-1.69334 -0.89514,-3.34426 -1.2196,-3.66872 -0.71416,-0.71416 -26.47795,-3.88324 -32.02534,-3.93929 l -3.94991,-0.0399 -0.2475,26.816766 -0.24749,26.816768 h -12.59222 -12.59222 l -0.46638,-12.592221 -0.46638,-12.592222 h -3.73103 -3.73103 l -0.46638,12.592222 -0.46638,12.592221 h -7.46205 -7.46206 l -0.2484,-25.536924 c -0.17567,-18.06066 0.0626,-25.91161 0.81378,-26.81677 0.79008,-0.95198 3.84053,-1.27618 11.90786,-1.26556 5.96513,0.008 11.35716,0.33928 11.9823,0.73649 0.7743,0.49199 1.2203,4.57574 1.39914,12.811126 l 0.26252,12.088924 3.96422,0.28682 3.96422,0.286821 v -11.992923 c 0,-8.084148 0.36481,-12.357728 1.11931,-13.112228 0.61561,-0.61562 2.81925,-1.15245 4.89697,-1.19295 3.37982,-0.0659 3.53208,-0.16209 1.44577,-0.91356 -3.15928,-1.13793 -68.96005,-8.49001 -70.03565,-7.82525 -1.10534,0.68313 -1.13651,80.349983 -0.0317,81.032783 0.45219,0.27947 20.88967,-1.55989 45.4166,-4.08747 24.52694,-2.527576 44.93413,-4.385656 45.34931,-4.129061 1.05229,0.65035 0.94571,3.859421 -0.15068,4.537031 -0.49806,0.30781 -21.17028,2.84907 -45.93829,5.64724 -24.76801,2.79817 -46.60677,5.3363 -48.53058,5.6403 l -3.49784,0.55272 z m 141.45728,39.310707 c -2.08125,-2.29974 -1.94452,-5.104418 0.35005,-7.180982 1.498,-1.355665 2.42203,-1.528048 4.42154,-0.824858 1.39028,0.488934 2.66757,1.614843 2.83842,2.50202 0.43867,2.27788 -1.43864,2.01417 -2.17487,-0.30551 -0.86144,-2.714146 -3.4372,-1.880195 -4.31351,1.39658 -0.95506,3.57126 0.58033,5.49357 3.79475,4.75102 1.81131,-0.41843 2.05742,-0.32211 1.00197,0.39213 -2.10845,1.42681 -4.19967,1.16873 -5.91835,-0.7304 z m 77.96086,0.20573 c 1.53924,-1.58931 1.51878,-1.77906 -0.41385,-3.83624 -1.96913,-2.096052 -1.97924,-2.215033 -0.32096,-3.777324 1.62788,-1.533657 1.68161,-1.526067 1.09091,0.154118 -0.37694,1.072188 -0.03,2.420561 0.88209,3.428436 1.92108,2.12277 1.39405,4.94686 -1.00273,5.37314 -1.76425,0.31378 -1.77575,0.24826 -0.23546,-1.34213 z m 11.45551,-0.0161 c -2.43223,-2.43223 -1.49869,-7.119256 1.63621,-8.214927 2.12584,-0.742995 2.92985,-0.558919 4.52467,1.03591 1.21166,1.211649 1.57169,2.166759 0.95943,2.545157 -0.53902,0.33314 -1.43561,-0.245535 -1.99242,-1.285937 -1.37703,-2.572994 -3.58597,-2.383684 -4.27621,0.366477 -0.98702,3.93256 -0.12745,5.6889 2.68772,5.49181 1.40238,-0.0982 2.30558,0.21662 2.0071,0.69956 -0.8514,1.37759 -3.87916,1.02929 -5.5465,-0.63805 z m -123.81981,-1.96351 c -0.71016,-1.44995 -1.96396,-2.52644 -2.8579,-2.45373 -1.15702,0.0941 -1.59265,-0.592445 -1.59265,-2.510033 0,-4.022875 1.62366,-4.158968 3.47207,-0.291026 2.22208,4.649849 3.73173,4.916559 5.38825,0.951932 1.61496,-3.865126 3.26552,-5.204307 3.26552,-2.649472 0,0.992182 0.22107,3.220593 0.49126,4.952019 0.41477,2.65786 0.34683,2.82126 -0.43631,1.04936 -1.20412,-2.724362 -2.68289,-2.668158 -3.75153,0.14258 -1.29383,3.40304 -2.57992,3.66434 -3.97871,0.80837 z m 11.86926,0.67758 c -1.3978,-1.54456 -1.50741,-2.27375 -0.63093,-4.197405 0.58341,-1.280457 1.57344,-2.328104 2.20006,-2.328104 0.88612,0 0.89056,0.248736 0.02,1.119309 -0.61562,0.61562 -1.11931,2.000764 -1.11931,3.0781 0,1.07733 0.50369,2.46248 1.11931,3.0781 0.61562,0.61562 0.89054,1.11931 0.61094,1.11931 -0.2796,0 -1.26963,-0.84119 -2.20006,-1.86931 z m 6.08064,1.16974 c 0.007,-0.38476 0.40978,-1.32512 0.89316,-2.08968 0.59231,-0.93686 0.42857,-2.07734 -0.50217,-3.497839 -1.27703,-1.948998 -1.23892,-2.10773 0.50599,-2.10773 1.61462,0 1.88701,0.605895 1.88701,4.197409 0,3.10919 -0.36274,4.19741 -1.39914,4.19741 -0.76952,0 -1.3927,-0.31481 -1.38485,-0.69957 z m 33.24317,-1.00621 c -1.73738,-1.91977 -2.01751,-5.926365 -0.59962,-8.575734 1.16117,-2.169663 6.66643,-3.339979 9.00616,-1.91454 1.38241,0.842211 1.05713,0.931761 -1.70121,0.468351 -2.70892,-0.455107 -3.81215,-0.171255 -5.36336,1.37996 -2.57938,2.579381 -2.46766,5.254003 0.33658,8.058243 1.32549,1.3255 1.7791,2.2895 1.07731,2.2895 -0.66668,0 -1.90683,-0.7676 -2.75586,-1.70578 z m 7.68443,0.85421 c 0.76147,-0.48217 1.08734,-1.63509 0.78689,-2.78399 -0.54235,-2.073963 1.46964,-2.820289 2.61352,-0.96945 0.69079,1.11771 -2.10986,4.61266 -3.67873,4.59072 -0.56176,-0.008 -0.43652,-0.38463 0.27832,-0.83728 z m 8.0765,-0.31438 c -1.16221,-3.77253 -1.37577,-6.296112 -0.53278,-6.296112 0.52279,0 0.95053,1.175274 0.95053,2.611722 0,1.43644 0.50369,3.11541 1.11931,3.73103 0.87057,0.87057 0.86407,1.11931 -0.0293,1.11931 -0.63173,0 -1.31023,-0.52468 -1.50779,-1.16595 z m 5.17506,-0.93276 c 1.60599,-3.08675 1.77199,-3.12316 1.77199,-0.38865 0,1.61448 -0.50251,2.48736 -1.43195,2.48736 -1.18669,0 -1.24493,-0.35948 -0.34004,-2.09871 z m 15.2119,0.81424 c -0.93205,-2.42889 0.0497,-10.217523 1.34159,-10.643197 0.98529,-0.324655 1.03986,-0.0092 0.25279,1.461468 -0.77343,1.445178 -0.68182,2.142662 0.39933,3.039934 1.24369,1.032173 1.22685,1.359168 -0.14833,2.878725 -1.26562,1.39848 -1.33482,1.97523 -0.3757,3.1309 0.84061,1.01287 0.86896,1.41664 0.0995,1.41664 -0.59194,0 -1.29804,-0.57801 -1.56914,-1.28447 z m 10.99833,0.16516 c -0.61562,-0.61562 -1.11931,-2.03332 -1.11931,-3.15044 0,-2.142372 2.42313,-4.811124 3.44265,-3.791609 0.32961,0.329614 0.13788,0.599297 -0.42607,0.599297 -1.58159,0 -2.30525,3.439932 -1.16993,5.561312 1.15324,2.15485 0.90875,2.41753 -0.72734,0.78144 z m 5.40999,0.64027 c 0,-0.26347 0.50605,-1.28934 1.12454,-2.27971 0.92619,-1.48307 0.81843,-2.13894 -0.61095,-3.718377 -1.70021,-1.878717 -1.69463,-1.917692 0.2746,-1.917692 1.76048,0 2.01008,0.521212 2.01008,4.197409 0,3.10919 -0.36274,4.19741 -1.39914,4.19741 -0.76952,0 -1.39913,-0.21557 -1.39913,-0.47904 z m -79.54506,-2.28265 c -0.23321,-0.89178 -0.10836,-3.258601 0.27745,-5.259595 0.38581,-2.000996 0.74974,-2.693757 0.80874,-1.53947 0.0758,1.483531 0.68756,2.098703 2.08699,2.098703 1.69918,0 1.80627,0.209001 0.75569,1.474877 -0.88349,1.064535 -0.95363,1.907955 -0.25212,3.031465 0.79552,1.27405 0.58852,1.58007 -1.1404,1.68601 -1.29589,0.0794 -2.27623,-0.49727 -2.53635,-1.49199 z m 109.20249,-0.9137 c -0.28104,-1.914813 0.0547,-3.517279 0.91762,-4.38023 2.06343,-2.063431 2.34517,-0.941577 0.86396,3.44025 l -1.33843,3.95943 z m -55.59279,-0.52201 c 0.019,-1.539051 0.22806,-2.055739 0.46455,-1.148196 0.23649,0.907546 0.22094,2.166766 -0.0346,2.798276 -0.25546,0.6315 -0.44895,-0.11103 -0.42994,-1.65008 z m 40.14311,-0.46638 c 0,-1.795558 0.19197,-2.530104 0.42658,-1.632325 0.23461,0.897779 0.23461,2.366875 0,3.264655 -0.23461,0.89777 -0.42658,0.16323 -0.42658,-1.63233 z m 17.37804,-11.80159 c -1.35291,-0.235319 -4.69036,-1.768701 -7.41655,-3.407515 -6.59181,-3.962572 -9.74555,-9.815952 -9.63316,-17.879249 0.17413,-12.492552 9.50596,-21.199091 22.65417,-21.136205 12.22641,0.05847 20.85835,7.336 22.20691,18.722472 1.09966,9.284882 -4.00516,18.738776 -11.80314,21.85891 -4.03778,1.615602 -12.02487,2.534436 -16.00823,1.841587 z m 8.8424,-11.620196 c 2.973,-1.354591 4.34415,-4.534752 4.34415,-10.07557 0,-6.221334 -2.55125,-9.409473 -7.52976,-9.409473 -6.14697,0 -9.08897,4.546078 -8.03367,12.413914 0.35215,2.625465 1.32458,4.595085 2.96555,6.006582 2.71218,2.332923 4.86152,2.61014 8.25373,1.064547 z m -157.90991,9.515798 c -1.41624,-2.646278 -1.26159,-20.795004 0.19417,-22.785875 1.03413,-1.414264 2.82414,-1.57301 15.15731,-1.344224 l 13.98469,0.259422 0.27858,5.324897 0.2786,5.324897 -7.74065,0.271646 c -6.138,0.215404 -7.74065,0.561326 -7.74065,1.670782 0,1.109456 1.60265,1.455378 7.74065,1.670781 l 7.74065,0.271646 -0.2786,5.324897 -0.27858,5.324897 -14.17886,0.257238 c -13.27008,0.24075 -14.24157,0.140058 -15.15731,-1.571004 z m 36.54377,0.686209 c -1.24618,-1.246172 -1.53362,-7.128298 -0.43083,-8.816019 0.3769,-0.576819 1.99673,-1.333139 3.59961,-1.68071 4.23144,-0.917555 7.09738,-4.383674 7.21112,-8.721279 0.12437,-4.743371 -2.22886,-8.164868 -6.59457,-9.588212 -4.27375,-1.393365 -4.8973,-2.230089 -4.91573,-6.596351 -0.0191,-4.535325 1.70947,-5.819777 6.71594,-4.990304 4.60812,0.763474 6.90826,1.798719 9.75858,4.39214 l 2.03107,1.848009 3.15503,-2.406459 c 3.4321,-2.617792 11.7098,-4.95313 14.18706,-4.002514 1.21701,0.467009 1.48639,1.608857 1.26424,5.35893 -0.2751,4.644133 -0.3773,4.797879 -4.01332,6.038313 -4.99319,1.70343 -6.99568,4.357323 -6.99568,9.271356 0,4.891892 1.96918,7.474712 6.99568,9.175695 3.58778,1.214119 3.74214,1.43427 4.02064,5.734339 0.15928,2.459461 -0.11636,4.877705 -0.61252,5.373876 -1.49741,1.497407 -10.13398,-0.22319 -13.87979,-2.76516 l -3.47895,-2.36088 -4.21778,2.335136 c -5.10407,2.82583 -12.14882,4.051069 -13.7998,2.400094 z m 49.69058,-0.313611 c -2.05206,-0.74945 -3.85648,-1.368957 -4.00982,-1.376681 -0.15333,-0.0077 -1.08853,-1.797942 -2.07822,-3.978262 -2.3844,-5.252949 -2.63603,-18.849807 -0.36497,-19.721294 2.56555,-0.984493 10.23104,-0.612448 11.39663,0.553135 0.62898,0.628987 1.1193,3.643464 1.1193,6.881467 0,3.53299 0.46023,6.144112 1.18963,6.749465 0.6543,0.543017 3.27768,1.119088 5.82974,1.280157 l 4.6401,0.292853 v 5.130164 5.130164 l -6.99568,0.210735 c -4.31982,0.130128 -8.4228,-0.310475 -10.72671,-1.151903 z m 25.76926,0.151116 c -0.76039,-0.91621 -1.02746,-4.970571 -0.84753,-12.866079 l 0.26272,-11.528312 6.78908,-0.27459 6.78908,-0.274589 -0.25978,12.866811 -0.25978,12.866811 -5.68177,0.273858 c -4.06446,0.195904 -5.99781,-0.106938 -6.79202,-1.06391 z m 71.20512,0.109292 c -0.26022,-0.678128 -0.35939,-10.036668 -0.22038,-20.796757 l 0.25275,-19.563798 h 13.10056 c 14.55461,0 16.57298,0.638804 20.05336,6.346792 1.6161,2.650479 1.81788,4.768251 1.82098,19.111705 l 0.003,16.130924 -6.76249,-0.274052 -6.76249,-0.274054 -0.25909,-13.926994 c -0.16102,-8.655471 -0.66039,-14.410531 -1.31929,-15.204462 -0.58312,-0.702608 -2.14549,-1.151312 -3.47194,-0.99712 l -2.41174,0.280347 -0.46637,14.924115 -0.46638,14.924114 -6.30892,0.276099 c -4.57327,0.200141 -6.43908,-0.0631 -6.78205,-0.956859 z M 253.28894,-87.76061 c -1.48548,-1.485479 -1.4678,-6.497201 0.0301,-8.545761 1.03412,-1.414264 2.82413,-1.57301 15.1573,-1.344225 l 13.98471,0.259422 v 5.130165 5.130164 l -14.01484,0.256355 c -10.111,0.184946 -14.33306,-0.06188 -15.1573,-0.88612 z m 76.66424,-0.171233 c -0.27805,-0.72461 -0.37415,-3.149391 -0.21353,-5.388401 l 0.29204,-4.07093 h 13.99136 13.99136 v 5.130165 5.130164 l -13.77783,0.258238 c -11.18055,0.209556 -13.87314,0.0099 -14.2834,-1.059236 z m 34.78418,0.683741 c -0.90941,-0.909416 -0.80572,-8.002831 0.13875,-9.491861 0.53487,-0.843262 2.59684,-1.128274 6.74821,-0.932757 l 5.97799,0.281546 v 5.130165 5.130164 l -6.10246,0.271392 c -3.35634,0.149266 -6.39946,-0.02562 -6.76249,-0.388649 z"
       id="path821"
       inkscape:connector-curvature="0" />
    <path
       id="path916"
       style="fill:none;stroke:#ff7b01;stroke-width:4.665;stroke-linecap:round;stroke-linejoin:round;stroke-opacity:1;stroke-miterlimit:4;stroke-dasharray:none"
       d="m 225.37049,232.43386 36.34865,-41.69405 m -14.43255,2.93997 14.43255,-2.93997 -1.87088,13.89801" />
    <path
       d="m 401.79156,226.89567 -41.69405,-36.34865 m 2.93997,14.43255 -2.93997,-14.43255 13.89801,1.87088"
       style="fill:none;stroke:#ff7b01;stroke-width:4.66499996;stroke-linecap:round;stroke-linejoin:round;stroke-miterlimit:4;stroke-dasharray:none;stroke-opacity:1"
       id="path921"
       inkscape:connector-curvature="0" />
    <path
       inkscape:connector-curvature="0"
       id="path923"
       style="fill:none;stroke:#ff7b01;stroke-width:4.66499996;stroke-linecap:round;stroke-linejoin:round;stroke-miterlimit:4;stroke-dasharray:none;stroke-opacity:1"
       d="m 329.38051,38.534152 -3.77977,-55.184522 m -8.12648,12.2842265 8.12648,-12.2842265 8.50447,11.1502888" />
    <text
       xml:space="preserve"
       style="font-style:normal;font-variant:normal;font-weight:normal;font-stretch:normal;font-size:32.72338867px;line-height:1.25;font-family:Sawasdee;-inkscape-font-specification:Sawasdee;letter-spacing:0px;word-spacing:0px;fill:#000000;fill-opacity:1;stroke:none;stroke-width:0.81808472"
       x="415.98837"
       y="-21.121437"
       id="text927"><tspan
         sodipodi:role="line"
         id="tspan925"
         x="415.98837"
         y="-21.121437"
         style="font-style:normal;font-variant:normal;font-weight:normal;font-stretch:normal;font-family:Sawasdee;-inkscape-font-specification:Sawasdee;stroke-width:0.81808472">DISPLAY</tspan></text>
  </g>
</svg>
